<svg width="96" height="29" viewBox="0 0 96 29" fill="none" xmlns="http://www.w3.org/2000/svg">
<path d="M0.850515 0.839997H7.28709L11.0686 27.5518H11.5513L15.3328 0.839997H21.7694V29H18.6315V2.28823H18.1488L14.3673 29H8.25257L4.47109 2.28823H3.98834V29H0.850515V0.839997ZM41.4534 27.5518H41.9361V0.839997H45.3153V29H38.5569L30.4308 2.28823H29.948V29H26.5688V0.839997H33.3272L41.4534 27.5518ZM50.1148 0.839997H56.5514L60.3329 27.5518H60.8156L64.5971 0.839997H71.0337V29H67.8958V2.28823H67.4131L63.6316 29H57.5169L53.7354 2.28823H53.2526V29H50.1148V0.839997ZM75.3101 0.839997H95.1026V3.97783H86.896V29H83.5168V3.97783H75.3101V0.839997Z" fill="black"/>
</svg>
